<?xml version="1.0" encoding="utf-8"?>
<!-- Generator: Adobe Illustrator 19.0.0, SVG Export Plug-In . SVG Version: 6.00 Build 0)  -->
<svg version="1.1" id="layer" xmlns="http://www.w3.org/2000/svg" xmlns:xlink="http://www.w3.org/1999/xlink" x="0px" y="0px"
	 viewBox="-153 -46 652 652" style="enable-background:new -153 -46 652 652;" xml:space="preserve">
<path d="M40.3,300.4v-49.9h33.9v10.9H52.6v8.3h18.5v10.9H52.6v8.8h21.7v10.9H40.3z M124.6,261.4v-10.9H87.8v10.9H100v39h12.3v-39
	H124.6z M177.1,300.4v-49.9h-12.3v19.2h-13v-19.2h-12.3v49.9h12.3v-19.8h13v19.8H177.1z M238.2,280.6c3.4,0,4.5,2.2,4.5,4.3
	c0,2.1-1.1,4.4-4.5,4.4h-8.3v-8.8H238.2 M237.5,261.5c3.4,0,4.4,2.1,4.4,4.1c0,2-1.1,4.1-4.4,4.1h-7.6v-8.1H237.5 M239.4,300.4
	c8.9,0,15.6-5.2,15.6-14.7c0-7-4.1-9.6-6.2-10.9c1.5-1.1,5.5-4.2,5.5-9.9c0-8.6-5.5-14.4-15.9-14.4h-20.7v49.9H239.4 M293.5,263.2
	c1.1,1.5,1.8,3.2,1.8,12.3c0,9.1-0.7,10.7-1.8,12.2c-0.9,1.2-2.7,2.2-4.9,2.2c-2.2,0-4-1.1-4.9-2.2c-1.1-1.5-1.8-3.1-1.8-12.2
	c0-9.1,0.7-10.8,1.8-12.3c0.9-1.2,2.7-2.2,4.9-2.2C290.8,261,292.6,262,293.5,263.2 M302.5,295.2c5.3-5.3,5-12.3,5-19.8
	c0-7.5,0.2-14.5-5-19.8c-3.6-3.6-7.9-5.6-14-5.6c-6.1,0-10.3,2-14,5.6c-5.3,5.3-5,12.3-5,19.8c0,7.5-0.2,14.5,5,19.8
	c3.6,3.6,7.9,5.6,14,5.6C294.7,300.8,298.9,298.9,302.5,295.2 M346.2,282.7h-8.7l4.5-13.3L346.2,282.7z M364.6,300.4l-18.2-49.9H337
	l-18.2,49.9h12.8l2.5-7.4h15.4l2.3,7.4H364.6z M396.7,261.5c3.4,0,5.3,2.5,5.3,5.1c0,2.6-2,5-5.3,5h-6.9v-10.1H396.7 M416.9,300.4
	l-10.8-20.8c3.9-2,8.1-6.2,8.1-13c0-8.2-6-16.1-17-16.1h-19.8v49.9h12.3v-18.6h4.1l8.8,18.6H416.9z M454.5,264.2
	c1,1.4,1.3,2.8,1.3,11.2c0,8.5-0.3,9.8-1.3,11.2c-1.1,1.7-2.8,2.8-5.9,2.8h-5.4v-28.1h5.4C451.7,261.4,453.4,262.5,454.5,264.2
	 M462.9,295.5c5.8-5.8,5.2-12.2,5.2-20.1c0-7.9,0.6-14.2-5.2-20.1c-3.4-3.4-8.3-4.9-13.5-4.9H431v49.9h18.5
	C454.7,300.4,459.5,298.9,462.9,295.5 M-53.8,330.3l-14.5,8.4l-18.3-10.5l-0.1,10.4l18.5,10.7l23.6-13.6L-53.8,330.3z M-27.6,236
	l14.2,8.3l0,21l9-5.2l0-21.2l-23.3-13.4L-27.6,236z M-13.6,290.4l0,16.9l-18.2,10.5l8.9,5.2l18.5-10.6l0-27.3L-13.6,290.4z
	 M-82.7,221l14.5-8.4l18.3,10.5l0-10.4l-18.4-10.6l-23.6,13.6L-82.7,221z M-122.6,260.7l0-16.9l18.2-10.5l-8.9-5.3l-18.5,10.7
	l0,27.3L-122.6,260.7z M-108.3,315.4l-14.6-8.5l0-20.9l-8.9,5.1l0,21.4l23.6,13.6L-108.3,315.4z"/>
</svg>
